{
	"asset":{
		"version":"2.0",
		"generator":"Maxon Cinema 4D 2024.5.1 (#200000219)"
	},
	"scenes":[{
		"nodes":[0,
		1]
	}],
	"nodes":[{
		"name":"1",
		"camera":0,
		"translation":[0.0,
		0.0,
		12.300000190734864],
		"scale":[1.0,
		1.0,
		1.0],
		"rotation":[0.0,
		0.0,
		0.0,
		-1.0]
	},
	{
		"name":"3.1",
		"translation":[-0.059110771864652637,
		0.0,
		0.0],
		"scale":[1.0,
		1.0,
		1.0],
		"rotation":[0.0,
		0.0,
		0.0,
		-1.0],
		"children":[2]
	},
	{
		"name":"3",
		"translation":[-1.6412067413330079,
		-0.05956074222922325,
		0.5388228297233582],
		"scale":[1.0,
		1.0,
		1.0],
		"rotation":[0.0,
		0.0,
		0.0,
		-1.0],
		"children":[3,
		4]
	},
	{
		"name":"Extrude",
		"translation":[-0.16400659084320069,
		-0.1663755625486374,
		-0.4999997913837433],
		"scale":[1.0,
		1.0,
		1.0],
		"rotation":[0.0,
		0.0,
		0.0,
		-1.0],
		"children":[5]
	},
	{
		"name":"Extrude.1",
		"translation":[0.16400659084320069,
		0.1663755625486374,
		-0.5000002384185791],
		"scale":[1.0,
		1.0,
		1.0],
		"rotation":[0.0,
		0.0,
		0.0,
		-1.0],
		"children":[6]
	},
	{
		"name":"Extrude",
		"mesh":0
	},
	{
		"name":"Extrude.1",
		"mesh":1
	}],
	"meshes":[{
		"name":"Extrude",
		"primitives":[{
			"attributes":{
				"POSITION":5,
				"NORMAL":6,
				"TEXCOORD_0":7
			},
			"indices":4,
			"material":0
		}]
	},
	{
		"name":"Extrude.1",
		"primitives":[{
			"attributes":{
				"POSITION":9,
				"NORMAL":10,
				"TEXCOORD_0":11
			},
			"indices":8,
			"material":0
		}]
	}],
	"cameras":[{
		"type":"orthographic",
		"orthographic":{
			"znear":0.0,
			"zfar":10000000000.0,
			"xmag":4.0960001945495609,
			"ymag":2.303999900817871
		}
	}],
	"accessors":[{
		"bufferView":0,
		"count":3,
		"type":"SCALAR",
		"componentType":5126,
		"byteOffset":0,
		"min":[0.0],
		"max":[0.8333333134651184]
	},
	{
		"bufferView":0,
		"count":3,
		"type":"VEC3",
		"componentType":5126,
		"byteOffset":12,
		"min":[-1.6412067413330079,
		-0.15000000596046449,
		0.0],
		"max":[-0.17000000178813935,
		-0.05956074222922325,
		0.0]
	},
	{
		"bufferView":1,
		"count":3,
		"type":"SCALAR",
		"componentType":5126,
		"byteOffset":0,
		"min":[0.0],
		"max":[0.8333333134651184]
	},
	{
		"bufferView":1,
		"count":3,
		"type":"VEC4",
		"componentType":5126,
		"byteOffset":12,
		"min":[-0.24598416686058045,
		-0.5938583016395569,
		0.0,
		-1.0],
		"max":[0.0,
		0.0,
		0.7077327966690064,
		-0.29315251111984255]
	},
	{
		"bufferView":2,
		"count":7260,
		"type":"SCALAR",
		"componentType":5123,
		"byteOffset":0,
		"min":[0],
		"max":[7259]
	},
	{
		"bufferView":3,
		"count":7260,
		"type":"VEC3",
		"componentType":5126,
		"byteOffset":0,
		"min":[-0.7757050395011902,
		-0.4518689811229706,
		-0.009999999776482582],
		"max":[0.7757050395011902,
		0.4518689811229706,
		0.0]
	},
	{
		"bufferView":3,
		"count":7260,
		"type":"VEC3",
		"componentType":5126,
		"byteOffset":12,
		"min":[-1.0,
		-1.0,
		-1.0],
		"max":[1.0,
		1.0,
		1.0]
	},
	{
		"bufferView":3,
		"count":7260,
		"type":"VEC2",
		"componentType":5126,
		"byteOffset":24,
		"min":[0.2740654945373535,
		0.11214748024940491],
		"max":[0.7259345054626465,
		0.8878525495529175]
	},
	{
		"bufferView":4,
		"count":7260,
		"type":"SCALAR",
		"componentType":5123,
		"byteOffset":0,
		"min":[0],
		"max":[7259]
	},
	{
		"bufferView":5,
		"count":7260,
		"type":"VEC3",
		"componentType":5126,
		"byteOffset":0,
		"min":[-0.7757050395011902,
		-0.4518689811229706,
		-0.009999999776482582],
		"max":[0.7757050395011902,
		0.4518689811229706,
		0.0]
	},
	{
		"bufferView":5,
		"count":7260,
		"type":"VEC3",
		"componentType":5126,
		"byteOffset":12,
		"min":[-1.0,
		-1.0,
		-1.0],
		"max":[1.0,
		1.0,
		1.0]
	},
	{
		"bufferView":5,
		"count":7260,
		"type":"VEC2",
		"componentType":5126,
		"byteOffset":24,
		"min":[0.2740654945373535,
		0.11214748024940491],
		"max":[0.7259345054626465,
		0.8878525495529175]
	}],
	"bufferViews":[{
		"buffer":0,
		"byteOffset":0,
		"byteLength":48
	},
	{
		"buffer":0,
		"byteOffset":48,
		"byteLength":60
	},
	{
		"buffer":1,
		"byteOffset":0,
		"byteLength":14520,
		"target":34963
	},
	{
		"buffer":1,
		"byteOffset":14520,
		"byteLength":232320,
		"target":34962,
		"byteStride":32
	},
	{
		"buffer":2,
		"byteOffset":0,
		"byteLength":14520,
		"target":34963
	},
	{
		"buffer":2,
		"byteOffset":14520,
		"byteLength":232320,
		"target":34962,
		"byteStride":32
	}],
	"buffers":[{
		"uri":"data:application/octet-stream;base64,",
		"byteLength":108
	},
	{
		"uri":"data:application/octet-stream;base64,",
		"byteLength":246840
	},
	{
		"uri":"data:application/octet-stream;base64,",
		"byteLength":246840
	}],
	"materials":[{
		"pbrMetallicRoughness":{
			"baseColorFactor":[0.7999999999999999,
			0.7999999999999999,
			0.7999999999999999,
			1.0],
			"metallicFactor":0.0,
			"roughnessFactor":1.0
		},
		"emissiveFactor":[0.0,
		0.0,
		0.0],
		"alphaMode":"OPAQUE",
		"doubleSided":false,
		"name":"RS Incandescent"
	}],
	"animations":[{
		"samplers":[{
			"input":0,
			"interpolation":"LINEAR",
			"output":1
		},
		{
			"input":2,
			"interpolation":"LINEAR",
			"output":3
		}],
		"channels":[{
			"sampler":0,
			"target":{
				"node":2,
				"path":"translation"
			}
		},
		{
			"sampler":1,
			"target":{
				"node":2,
				"path":"rotation"
			}
		}]
	}]
}