{
	"asset":{
		"version":"2.0",
		"generator":"Maxon Cinema 4D 2024.5.1 (#200000219)"
	},
	"scenes":[{
		"nodes":[0,
		1]
	}],
	"nodes":[{
		"name":"1",
		"camera":0,
		"translation":[0.0,
		0.0,
		12.300000190734864],
		"scale":[1.0,
		1.0,
		1.0],
		"rotation":[0.0,
		0.0,
		0.0,
		-1.0]
	},
	{
		"name":"3.1",
		"translation":[-0.059110771864652637,
		0.0,
		0.0],
		"scale":[1.0,
		1.0,
		1.0],
		"rotation":[0.0,
		0.0,
		0.0,
		-1.0],
		"children":[2]
	},
	{
		"name":"3",
		"translation":[-1.027368426322937,
		-0.0972951278090477,
		0.5388228297233582],
		"scale":[1.0,
		1.0,
		1.0],
		"rotation":[0.3860678970813751,
		0.5242021679878235,
		-0.11025412380695343,
		0.7510044574737549],
		"children":[3,
		4]
	},
	{
		"name":"2.1",
		"mesh":0,
		"translation":[-0.16400659084320069,
		-0.1663755625486374,
		-0.4999997913837433],
		"scale":[1.0,
		1.0,
		1.0],
		"rotation":[0.0,
		0.0,
		0.0,
		-1.0]
	},
	{
		"name":"1.1",
		"mesh":1,
		"translation":[-0.16400659084320069,
		-0.1663755625486374,
		-0.4999997913837433],
		"scale":[1.0,
		1.0,
		1.0],
		"rotation":[0.0,
		0.0,
		0.0,
		-1.0]
	}],
	"meshes":[{
		"name":"2.1",
		"primitives":[{
			"attributes":{
				"POSITION":5,
				"NORMAL":6,
				"TEXCOORD_0":7
			},
			"indices":4,
			"material":0
		}]
	},
	{
		"name":"1.1",
		"primitives":[{
			"attributes":{
				"POSITION":9,
				"NORMAL":10,
				"TEXCOORD_0":11
			},
			"indices":8,
			"material":1
		}]
	}],
	"cameras":[{
		"type":"orthographic",
		"orthographic":{
			"znear":0.0,
			"zfar":10000000000.0,
			"xmag":2.698413610458374,
			"ymag":1.5178576707839966
		}
	}],
	"accessors":[{
		"bufferView":0,
		"count":3,
		"type":"SCALAR",
		"componentType":5126,
		"byteOffset":0,
		"min":[0.0],
		"max":[0.8333333134651184]
	},
	{
		"bufferView":0,
		"count":3,
		"type":"VEC3",
		"componentType":5126,
		"byteOffset":12,
		"min":[-1.6412067413330079,
		-0.15000000596046449,
		0.0],
		"max":[-0.17000000178813935,
		-0.05956074222922325,
		0.0]
	},
	{
		"bufferView":1,
		"count":3,
		"type":"SCALAR",
		"componentType":5126,
		"byteOffset":0,
		"min":[0.0],
		"max":[0.8333333134651184]
	},
	{
		"bufferView":1,
		"count":3,
		"type":"VEC4",
		"componentType":5126,
		"byteOffset":12,
		"min":[-0.24083048105239869,
		-0.5814162492752075,
		0.0,
		-1.0],
		"max":[0.0,
		0.0,
		0.7179892659187317,
		-0.29740089178085329]
	},
	{
		"bufferView":2,
		"count":1509,
		"type":"SCALAR",
		"componentType":5123,
		"byteOffset":0,
		"min":[0],
		"max":[1508]
	},
	{
		"bufferView":3,
		"count":1509,
		"type":"VEC3",
		"componentType":5126,
		"byteOffset":0,
		"min":[-0.7757050395011902,
		-0.4518689811229706,
		-2.9148272481460356e-16],
		"max":[0.7757050395011902,
		0.13031084835529328,
		1.792234366117414e-16]
	},
	{
		"bufferView":3,
		"count":1509,
		"type":"VEC3",
		"componentType":5126,
		"byteOffset":12,
		"min":[0.0,
		0.0,
		-1.0],
		"max":[0.0,
		0.0,
		-1.0]
	},
	{
		"bufferView":3,
		"count":1509,
		"type":"VEC2",
		"componentType":5126,
		"byteOffset":24,
		"min":[-0.27200910449028017,
		0.07604748010635376],
		"max":[0.7923077940940857,
		0.7583812475204468]
	},
	{
		"bufferView":4,
		"count":156,
		"type":"SCALAR",
		"componentType":5123,
		"byteOffset":0,
		"min":[0],
		"max":[155]
	},
	{
		"bufferView":5,
		"count":156,
		"type":"VEC3",
		"componentType":5126,
		"byteOffset":0,
		"min":[0.7677143812179565,
		-0.44387829303741457,
		-2.646648245977525e-17],
		"max":[0.7757050395011902,
		-0.25196373462677,
		0.800000011920929]
	},
	{
		"bufferView":5,
		"count":156,
		"type":"VEC3",
		"componentType":5126,
		"byteOffset":12,
		"min":[0.7178213596343994,
		-0.6962273716926575,
		0.0],
		"max":[0.9999943971633911,
		0.0033750867005437614,
		0.0]
	},
	{
		"bufferView":5,
		"count":156,
		"type":"VEC2",
		"componentType":5126,
		"byteOffset":24,
		"min":[-0.27840960025787356,
		0.09193271398544312],
		"max":[0.7613945603370667,
		0.1124849021434784]
	}],
	"bufferViews":[{
		"buffer":0,
		"byteOffset":0,
		"byteLength":48
	},
	{
		"buffer":0,
		"byteOffset":48,
		"byteLength":60
	},
	{
		"buffer":1,
		"byteOffset":0,
		"byteLength":3018,
		"target":34963
	},
	{
		"buffer":1,
		"byteOffset":3020,
		"byteLength":48288,
		"target":34962,
		"byteStride":32
	},
	{
		"buffer":2,
		"byteOffset":0,
		"byteLength":312,
		"target":34963
	},
	{
		"buffer":2,
		"byteOffset":312,
		"byteLength":4992,
		"target":34962,
		"byteStride":32
	}],
	"buffers":[{
		"uri":"data:application/octet-stream;base64,",
		"byteLength":108
	},
	{
		"uri":"data:application/octet-stream;base64,",
		"byteLength":51308
	},
	{
		"uri":"data:application/octet-stream;base64,",
		"byteLength":5304
	}],
	"materials":[{
		"pbrMetallicRoughness":{
			"baseColorFactor":[0.7999999999999999,
			0.7999999999999999,
			0.7999999999999999,
			1.0],
			"metallicFactor":0.0,
			"roughnessFactor":1.0
		},
		"emissiveFactor":[0.0,
		0.0,
		0.0],
		"alphaMode":"OPAQUE",
		"doubleSided":false,
		"name":"RS Incandescent"
	},
	{
		"pbrMetallicRoughness":{
			"baseColorFactor":[0.7999999999999999,
			0.7999999999999999,
			0.7999999999999999,
			1.0],
			"metallicFactor":0.0,
			"roughnessFactor":1.0
		},
		"emissiveFactor":[0.0,
		0.0,
		0.0],
		"alphaMode":"OPAQUE",
		"doubleSided":false,
		"name":"RS Incandescent"
	}],
	"animations":[{
		"samplers":[{
			"input":0,
			"interpolation":"LINEAR",
			"output":1
		},
		{
			"input":2,
			"interpolation":"LINEAR",
			"output":3
		}],
		"channels":[{
			"sampler":0,
			"target":{
				"node":2,
				"path":"translation"
			}
		},
		{
			"sampler":1,
			"target":{
				"node":2,
				"path":"rotation"
			}
		}]
	}]
}