{
	"asset":{
		"version":"2.0",
		"generator":"Maxon Cinema 4D 2024.5.1 (#200000219)"
	},
	"scenes":[{
		"nodes":[0,
		1]
	}],
	"buffers":[{
		"uri":"data:application/octet-stream;base64,",
		"byteLength":1836
	},
	{
		"uri":"data:application/octet-stream;base64,",
		"byteLength":816
	},
	{
		"uri":"data:application/octet-stream;base64,",
		"byteLength":508200
	},
	{
		"uri":"data:application/octet-stream;base64,",
		"byteLength":48
	},
	{
		"uri":"data:application/octet-stream;base64,",
		"byteLength":508200
	},
	{
		"uri":"data:application/octet-stream;base64,",
		"byteLength":48
	}],
	"nodes":[{
		"name":"3",
		"translation":[-1.6412067413330079,
		-0.05956074222922325,
		0.5388228297233582],
		"rotation":[0.0,
		0.0,
		0.0,
		-1.0],
		"scale":[1.0,
		1.0,
		1.0],
		"children":[2,
		3]
	},
	{
		"name":"Camera",
		"camera":0,
		"translation":[0.05999999865889549,
		-0.05999999865889549,
		50.84000015258789],
		"rotation":[5.438524531099133e-32,
		4.440892098500626e-16,
		1.2246468525851679e-16,
		1.0],
		"scale":[1.0,
		1.0,
		1.0]
	},
	{
		"name":"Null",
		"translation":[-0.000600589788518846,
		-0.002025853842496872,
		-0.009044427424669266],
		"rotation":[1.2246468525851679e-16,
		6.123234262925839e-17,
		-1.0,
		6.123234262925839e-17],
		"scale":[1.0,
		1.0,
		1.0],
		"children":[4]
	},
	{
		"name":"RED",
		"mesh":0,
		"translation":[-0.16400659084320069,
		-0.1663755625486374,
		-0.4999997913837433],
		"rotation":[0.0,
		0.0,
		0.0,
		-1.0],
		"scale":[1.0,
		1.0,
		1.0]
	},
	{
		"name":"BLUE",
		"mesh":1,
		"translation":[-0.16400659084320069,
		-0.1663755625486374,
		-0.4999997913837433],
		"rotation":[0.0,
		0.0,
		0.0,
		-1.0],
		"scale":[1.0,
		1.0,
		1.0]
	}],
	"materials":[{
		"pbrMetallicRoughness":{
			"baseColorFactor":[1.0,
			0.0,
			0.0,
			1.0],
			"metallicFactor":0.0,
			"roughnessFactor":0.5
		},
		"emissiveFactor":[0.0,
		0.0,
		0.0],
		"alphaMode":"OPAQUE",
		"doubleSided":true,
		"name":"Mat"
	},
	{
		"pbrMetallicRoughness":{
			"baseColorFactor":[0.0,
			0.15999999999999946,
			0.8,
			1.0],
			"metallicFactor":0.0,
			"roughnessFactor":0.5
		},
		"emissiveFactor":[0.0,
		0.0,
		0.0],
		"alphaMode":"OPAQUE",
		"doubleSided":true,
		"name":"Mat.1"
	}],
	"meshes":[{
		"name":"RED",
		"primitives":[{
			"targets":[{
				"POSITION":10
			},
			{
				"POSITION":11
			},
			{
				"POSITION":12
			}],
			"attributes":{
				"POSITION":7,
				"NORMAL":8,
				"TEXCOORD_0":9
			},
			"indices":6,
			"material":0
		}],
		"extras":{
			"targetNames":["curve0",
			"curve1",
			"curve2"]
		},
		"weights":[0.0,
		0.0,
		0.0]
	},
	{
		"name":"BLUE",
		"primitives":[{
			"targets":[{
				"POSITION":19
			},
			{
				"POSITION":20
			},
			{
				"POSITION":21
			}],
			"attributes":{
				"POSITION":16,
				"NORMAL":17,
				"TEXCOORD_0":18
			},
			"indices":15,
			"material":1
		}],
		"extras":{
			"targetNames":["curve0",
			"curve1",
			"curve2"]
		},
		"weights":[0.0,
		0.0,
		0.0]
	}],
	"cameras":[{
		"type":"perspective",
		"perspective":{
			"znear":0.009999999776482582,
			"zfar":10000000000.0,
			"aspectRatio":1.7777777910232545,
			"yfov":0.09635395556688309
		}
	}],
	"accessors":[{
		"bufferView":0,
		"type":"SCALAR",
		"componentType":5126,
		"count":51,
		"byteOffset":0,
		"min":[0.0],
		"max":[0.8333333134651184]
	},
	{
		"bufferView":0,
		"type":"VEC3",
		"componentType":5126,
		"count":51,
		"byteOffset":204,
		"min":[-1.6412067413330079,
		-0.2800000011920929,
		0.5388228297233582],
		"max":[-0.17000000178813935,
		-0.05956074222922325,
		0.5388228297233582]
	},
	{
		"bufferView":1,
		"type":"SCALAR",
		"componentType":5126,
		"count":51,
		"byteOffset":0,
		"min":[0.0],
		"max":[0.8333333134651184]
	},
	{
		"bufferView":1,
		"type":"VEC4",
		"componentType":5126,
		"count":51,
		"byteOffset":204,
		"min":[0.0,
		0.0,
		-0.7329629063606262,
		-1.0],
		"max":[0.4620964527130127,
		0.6136542558670044,
		0.025533845648169519,
		0.9999959468841553]
	},
	{
		"bufferView":2,
		"type":"SCALAR",
		"componentType":5126,
		"count":51,
		"byteOffset":0,
		"min":[0.0],
		"max":[0.8333333134651184]
	},
	{
		"bufferView":2,
		"type":"VEC3",
		"componentType":5126,
		"count":51,
		"byteOffset":204,
		"min":[0.05999999865889549,
		-0.05999999865889549,
		15.550000190734864],
		"max":[0.05999999865889549,
		-0.05999999865889549,
		50.84000015258789]
	},
	{
		"bufferView":3,
		"type":"SCALAR",
		"componentType":5123,
		"count":7260,
		"byteOffset":0,
		"min":[0],
		"max":[7259]
	},
	{
		"bufferView":4,
		"type":"VEC3",
		"componentType":5126,
		"count":7260,
		"byteOffset":0,
		"min":[-0.7757050395011902,
		-0.4518689811229706,
		-1.0214052011839897e-16],
		"max":[0.7757050395011902,
		0.45185965299606326,
		1.4210854397564649e-16]
	},
	{
		"bufferView":4,
		"type":"VEC3",
		"componentType":5126,
		"count":7260,
		"byteOffset":12,
		"min":[0.0,
		0.0,
		-1.0],
		"max":[1.0,
		0.0,
		1.0]
	},
	{
		"bufferView":4,
		"type":"VEC2",
		"componentType":5126,
		"count":7260,
		"byteOffset":24,
		"min":[0.0,
		0.0],
		"max":[1.0,
		1.0]
	},
	{
		"bufferView":5,
		"type":"VEC3",
		"componentType":5126,
		"count":7260,
		"byteOffset":0,
		"min":[0.0,
		0.0,
		0.0],
		"max":[0.0,
		0.0,
		0.0]
	},
	{
		"bufferView":6,
		"type":"VEC3",
		"componentType":5126,
		"count":7260,
		"byteOffset":0,
		"min":[-2.220446049250313e-16,
		-2.220446049250313e-16,
		0.0],
		"max":[1.1102230246251566e-16,
		1.1102230246251566e-16,
		0.5272727012634277]
	},
	{
		"bufferView":7,
		"type":"VEC3",
		"componentType":5126,
		"count":7260,
		"byteOffset":0,
		"min":[-2.220446049250313e-16,
		-2.220446049250313e-16,
		-1.0942046389758427e-16],
		"max":[0.0,
		0.6499999761581421,
		0.800000011920929]
	},
	{
		"bufferView":8,
		"type":"SCALAR",
		"componentType":5126,
		"count":3,
		"byteOffset":0,
		"min":[0.0],
		"max":[0.7333333492279053]
	},
	{
		"bufferView":8,
		"type":"SCALAR",
		"componentType":5126,
		"count":9,
		"byteOffset":12,
		"min":[0.0],
		"max":[1.0]
	},
	{
		"bufferView":9,
		"type":"SCALAR",
		"componentType":5123,
		"count":7260,
		"byteOffset":0,
		"min":[0],
		"max":[7259]
	},
	{
		"bufferView":10,
		"type":"VEC3",
		"componentType":5126,
		"count":7260,
		"byteOffset":0,
		"min":[-0.7757050395011902,
		-0.4518689811229706,
		-1.0214052011839897e-16],
		"max":[0.7757050395011902,
		0.45185965299606326,
		1.4210854397564649e-16]
	},
	{
		"bufferView":10,
		"type":"VEC3",
		"componentType":5126,
		"count":7260,
		"byteOffset":12,
		"min":[0.0,
		0.0,
		-1.0],
		"max":[1.0,
		0.0,
		1.0]
	},
	{
		"bufferView":10,
		"type":"VEC2",
		"componentType":5126,
		"count":7260,
		"byteOffset":24,
		"min":[0.0,
		0.0],
		"max":[1.0,
		1.0]
	},
	{
		"bufferView":11,
		"type":"VEC3",
		"componentType":5126,
		"count":7260,
		"byteOffset":0,
		"min":[0.0,
		0.0,
		0.0],
		"max":[0.0,
		0.0,
		0.0]
	},
	{
		"bufferView":12,
		"type":"VEC3",
		"componentType":5126,
		"count":7260,
		"byteOffset":0,
		"min":[-2.220446049250313e-16,
		-2.220446049250313e-16,
		0.0],
		"max":[1.1102230246251566e-16,
		1.1102230246251566e-16,
		0.5272727012634277]
	},
	{
		"bufferView":13,
		"type":"VEC3",
		"componentType":5126,
		"count":7260,
		"byteOffset":0,
		"min":[-4.440892098500626e-16,
		-2.220446049250313e-16,
		-7.765989813165531e-17],
		"max":[0.0,
		8.326672684688674e-16,
		0.800000011920929]
	},
	{
		"bufferView":14,
		"type":"SCALAR",
		"componentType":5126,
		"count":3,
		"byteOffset":0,
		"min":[0.0],
		"max":[0.7333333492279053]
	},
	{
		"bufferView":14,
		"type":"SCALAR",
		"componentType":5126,
		"count":9,
		"byteOffset":12,
		"min":[0.0],
		"max":[1.0]
	}],
	"bufferViews":[{
		"buffer":0,
		"byteOffset":0,
		"byteLength":816
	},
	{
		"buffer":0,
		"byteOffset":816,
		"byteLength":1020
	},
	{
		"buffer":1,
		"byteOffset":0,
		"byteLength":816
	},
	{
		"buffer":2,
		"byteOffset":0,
		"byteLength":14520,
		"target":34963
	},
	{
		"buffer":2,
		"byteOffset":14520,
		"byteLength":232320,
		"target":34962,
		"byteStride":32
	},
	{
		"buffer":2,
		"byteOffset":246840,
		"byteLength":87120,
		"target":34962
	},
	{
		"buffer":2,
		"byteOffset":333960,
		"byteLength":87120,
		"target":34962
	},
	{
		"buffer":2,
		"byteOffset":421080,
		"byteLength":87120,
		"target":34962
	},
	{
		"buffer":3,
		"byteOffset":0,
		"byteLength":48
	},
	{
		"buffer":4,
		"byteOffset":0,
		"byteLength":14520,
		"target":34963
	},
	{
		"buffer":4,
		"byteOffset":14520,
		"byteLength":232320,
		"target":34962,
		"byteStride":32
	},
	{
		"buffer":4,
		"byteOffset":246840,
		"byteLength":87120,
		"target":34962
	},
	{
		"buffer":4,
		"byteOffset":333960,
		"byteLength":87120,
		"target":34962
	},
	{
		"buffer":4,
		"byteOffset":421080,
		"byteLength":87120,
		"target":34962
	},
	{
		"buffer":5,
		"byteOffset":0,
		"byteLength":48
	}],
	"animations":[{
		"samplers":[{
			"input":0,
			"interpolation":"LINEAR",
			"output":1
		},
		{
			"input":2,
			"interpolation":"LINEAR",
			"output":3
		},
		{
			"input":4,
			"interpolation":"LINEAR",
			"output":5
		},
		{
			"input":13,
			"interpolation":"LINEAR",
			"output":14
		},
		{
			"input":22,
			"interpolation":"LINEAR",
			"output":23
		}],
		"channels":[{
			"sampler":0,
			"target":{
				"node":0,
				"path":"translation"
			}
		},
		{
			"sampler":1,
			"target":{
				"node":0,
				"path":"rotation"
			}
		},
		{
			"sampler":2,
			"target":{
				"node":1,
				"path":"translation"
			}
		},
		{
			"sampler":3,
			"target":{
				"node":3,
				"path":"weights"
			}
		},
		{
			"sampler":4,
			"target":{
				"node":4,
				"path":"weights"
			}
		}]
	}]
}