<svg width="134" height="23" viewBox="0 0 134 23" fill="none" xmlns="http://www.w3.org/2000/svg">
<g clip-path="url(#clip0_40_53)">
<path d="M78.4705 21.1304C78.4705 22.0181 78.0819 22.462 77.3047 22.462H74.5309C74.1423 22.462 73.8609 22.3006 73.6867 21.9643C73.5125 21.6281 73.4187 21.238 73.4187 20.7942V3.55088C73.4187 2.86491 73.7001 2.23275 74.2629 1.65439C74.8257 1.08947 75.5493 0.807018 76.4337 0.807018H85.7869C86.7785 0.807018 87.7031 1.00877 88.5607 1.41228C89.4183 1.81579 90.1687 2.3538 90.8119 3.01287C91.4551 3.67193 91.9643 4.4386 92.3261 5.29942C92.6879 6.16023 92.8621 7.04795 92.8621 7.96257V22.045C92.8621 22.3275 92.7147 22.462 92.4065 22.462H88.2257C87.9443 22.462 87.8103 22.3275 87.8103 22.045V8.83684C87.8103 8.15088 87.7031 7.57252 87.5021 7.12866C87.3011 6.6848 87.0063 6.33509 86.6311 6.09298C86.2559 5.83743 85.8271 5.67602 85.3313 5.56842C84.8355 5.47427 84.2995 5.42047 83.7233 5.42047H79.7033C79.3951 5.42047 79.1137 5.52807 78.8591 5.75673C78.5911 5.98538 78.4705 6.21404 78.4705 6.46959V21.1304Z" fill="black"/>
<path d="M17.5809 17.3912C17.8623 17.3912 17.9963 17.5257 17.9963 17.8082V22.045C17.9963 22.3275 17.8623 22.462 17.5809 22.462H9.79546C8.28126 22.462 6.92786 22.193 5.73526 21.655C4.54266 21.117 3.53766 20.4041 2.70686 19.5298C1.87606 18.6556 1.24626 17.6871 0.804061 16.6246C0.361861 15.562 0.147461 14.4994 0.147461 13.4503V9.95322C0.147461 8.54094 0.348461 7.27661 0.750461 6.14678C1.15246 5.03041 1.76886 4.07544 2.61306 3.28187C3.45726 2.4883 4.54266 1.88304 5.86926 1.45263C7.18246 1.02222 8.76366 0.807018 10.5861 0.807018H17.5809C17.8623 0.807018 17.9963 0.941521 17.9963 1.22398V5.46082C17.9963 5.74328 17.8623 5.87778 17.5809 5.87778H9.75526C8.16066 5.87778 6.95466 6.36199 6.17746 7.33041C5.38686 8.29883 4.99826 9.49591 4.99826 10.9082V12.6971C4.99826 14.0825 5.37346 15.2123 6.13726 16.0865C6.90106 16.9608 8.10706 17.3912 9.75526 17.3912H17.5809Z" fill="black"/>
<path d="M70.7789 0.807018C71.0603 0.807018 71.1943 0.941521 71.1943 1.22398V5.46082C71.1943 5.74328 71.0603 5.87778 70.7789 5.87778H63.7841C63.5295 5.87778 63.3151 5.94503 63.1275 6.07953C62.9399 6.21404 62.7657 6.37544 62.6049 6.56374C62.4575 6.7386 62.3369 6.94035 62.2565 7.14211C62.1761 7.34386 62.1359 7.53216 62.1359 7.70702V22.045C62.1359 22.3275 62.0019 22.462 61.7205 22.462H57.0841C56.8027 22.462 56.6687 22.3275 56.6687 22.045V6.25439C56.6687 5.52807 56.8161 4.84211 57.0975 4.16959C57.3923 3.51053 57.7809 2.91871 58.2767 2.42105C58.7725 1.92339 59.3487 1.53333 60.0187 1.23743C60.6753 0.941521 61.3855 0.807018 62.1359 0.807018H70.7789Z" fill="black"/>
<path d="M100.259 14.486C100.259 14.9029 100.366 15.2795 100.594 15.6292C100.808 15.9789 101.117 16.2749 101.478 16.5439C101.854 16.8129 102.296 17.0146 102.818 17.1626C103.341 17.3105 103.89 17.3912 104.48 17.3912H114.329C114.61 17.3912 114.744 17.5257 114.744 17.8082V22.045C114.744 22.3275 114.61 22.462 114.329 22.462H107.334C105.016 22.462 103.073 22.2737 101.519 21.8836C99.9641 21.4936 98.7045 20.8749 97.7531 20.0275C96.8017 19.1801 96.1183 18.1041 95.7297 16.8129C95.3277 15.5082 95.1267 13.948 95.1267 12.1187C95.1267 9.89942 95.4617 8.07018 96.1451 6.61754C96.8151 5.16491 97.6995 4.00819 98.7983 3.14737C99.8837 2.28655 101.117 1.68129 102.483 1.34503C103.837 0.981872 105.204 0.807018 106.584 0.807018C108.299 0.807018 109.773 1.00877 111.019 1.41228C112.265 1.81579 113.284 2.3807 114.088 3.12047C114.892 3.86023 115.481 4.74795 115.843 5.79708C116.218 6.8462 116.406 8.02983 116.406 9.3345V13.652C116.406 13.9345 116.272 14.069 115.991 14.069H100.661C100.393 14.069 100.259 14.2035 100.259 14.486ZM111.314 9.21345C111.595 9.21345 111.729 9.07895 111.729 8.79649C111.729 7.74737 111.247 6.9 110.282 6.28129C109.317 5.66257 107.964 5.33977 106.222 5.33977C105.673 5.33977 105.056 5.42047 104.373 5.59532C103.689 5.75673 103.046 5.98538 102.43 6.28129C101.813 6.57719 101.291 6.9269 100.875 7.35731C100.46 7.78772 100.259 8.27193 100.259 8.79649C100.259 9.07895 100.393 9.21345 100.674 9.21345H111.314Z" fill="black"/>
<path d="M133.451 0.807018C133.732 0.807018 133.866 0.941521 133.866 1.22398V5.46082C133.866 5.74328 133.732 5.87778 133.451 5.87778H126.456C126.201 5.87778 125.987 5.94503 125.799 6.07953C125.612 6.21404 125.437 6.37544 125.277 6.56374C125.129 6.7386 125.009 6.94035 124.928 7.14211C124.848 7.34386 124.808 7.53216 124.808 7.70702V22.045C124.808 22.3275 124.674 22.462 124.392 22.462H119.756C119.474 22.462 119.34 22.3275 119.34 22.045V6.25439C119.34 5.52807 119.488 4.84211 119.769 4.16959C120.064 3.51053 120.453 2.91871 120.948 2.42105C121.444 1.92339 122.02 1.53333 122.69 1.23743C123.347 0.941521 124.057 0.807018 124.808 0.807018H133.451Z" fill="black"/>
<path d="M27.0948 0.807018C26.8268 0.807018 26.6124 1.02222 26.6124 1.29123V5.42047C26.6124 5.67602 26.8268 5.89123 27.0814 5.89123H45.158C45.5198 5.89123 45.9084 5.93158 46.3238 5.99883C46.7392 6.06608 47.1278 6.20059 47.4896 6.41579C47.8514 6.61755 48.1462 6.91345 48.374 7.26316C48.6152 7.62632 48.7224 8.08363 48.7224 8.63509V16.1807C48.7224 16.4363 48.9368 16.6515 49.1914 16.6515H53.2114C53.4794 16.6515 53.6938 16.4363 53.6938 16.1673V8.63509C53.6938 7.66667 53.6 6.7117 53.399 5.78363C53.2114 4.85556 52.863 4.02164 52.3672 3.29532C51.8714 2.55556 51.2014 1.96374 50.384 1.50643C49.5532 1.04912 48.508 0.820469 47.235 0.820469H27.0948V0.807018Z" fill="black"/>
<path d="M21.373 6.64445C21.105 6.64445 20.8906 6.85965 20.8906 7.12866V14.6608C20.8906 15.6292 20.9844 16.5842 21.1854 17.5123C21.373 18.4404 21.7214 19.2743 22.2172 20.0006C22.713 20.7404 23.383 21.3322 24.2004 21.7895C25.0312 22.2468 26.0764 22.4754 27.3494 22.4754H47.4762C47.7442 22.4754 47.9586 22.2602 47.9586 21.9912V17.862C47.9586 17.6064 47.7442 17.3912 47.4896 17.3912H29.4264C29.0646 17.3912 28.676 17.3509 28.2606 17.2836C27.8452 17.2164 27.4566 17.0819 27.0948 16.8667C26.733 16.6649 26.4382 16.369 26.2104 16.0193C25.9692 15.6561 25.862 15.1988 25.862 14.6474V7.11521C25.862 6.85965 25.6476 6.64445 25.393 6.64445H21.373Z" fill="black"/>
<path d="M27.0948 0.807018C26.8268 0.807018 26.6124 1.02222 26.6124 1.29123V5.42047C26.6124 5.67602 26.8268 5.89123 27.0814 5.89123H45.158C45.5198 5.89123 45.9084 5.93158 46.3238 5.99883C46.7392 6.06608 47.1278 6.20059 47.4896 6.41579C47.8514 6.61755 48.1462 6.91345 48.374 7.26316C48.6152 7.62632 48.7224 8.08363 48.7224 8.63509V16.1807C48.7224 16.4363 48.9368 16.6515 49.1914 16.6515H53.2114C53.4794 16.6515 53.6938 16.4363 53.6938 16.1673V8.63509C53.6938 7.66667 53.6 6.7117 53.399 5.78363C53.2114 4.85556 52.863 4.02164 52.3672 3.29532C51.8714 2.55556 51.2014 1.96374 50.384 1.50643C49.5532 1.04912 48.508 0.820469 47.235 0.820469H27.0948V0.807018Z" fill="black"/>
<path d="M21.373 6.64445C21.105 6.64445 20.8906 6.85965 20.8906 7.12866V14.6608C20.8906 15.6292 20.9844 16.5842 21.1854 17.5123C21.373 18.4404 21.7214 19.2743 22.2172 20.0006C22.713 20.7404 23.383 21.3322 24.2004 21.7895C25.0312 22.2468 26.0764 22.4754 27.3494 22.4754H47.4762C47.7442 22.4754 47.9586 22.2602 47.9586 21.9912V17.862C47.9586 17.6064 47.7442 17.3912 47.4896 17.3912H29.4264C29.0646 17.3912 28.676 17.3509 28.2606 17.2836C27.8452 17.2164 27.4566 17.0819 27.0948 16.8667C26.733 16.6649 26.4382 16.369 26.2104 16.0193C25.9692 15.6561 25.862 15.1988 25.862 14.6474V7.11521C25.862 6.85965 25.6476 6.64445 25.393 6.64445H21.373Z" fill="black"/>
</g>
<defs>
<clipPath id="clip0_40_53">
<rect width="134" height="23" fill="white"/>
</clipPath>
</defs>
</svg>
