<svg width="1398" height="163" viewBox="0 0 1398 163" fill="none" xmlns="http://www.w3.org/2000/svg">
    <path
        d="M135.462 160H0.336621V2.55H44.5166V120.285H135.462V160ZM287.037 160H147.212V2.55H287.037V42.265H191.392V61.065H283.512V100.545H191.392V120.285H287.037V160ZM395.944 160H351.764V42.265H296.069V2.55H451.404V42.265H395.944V160ZM480.405 86.68H464.19V59.42H478.995C484.635 59.42 487.22 57.775 487.22 50.96V47.67H462.075V2.55H519.415V50.725C519.415 74.93 505.08 86.68 480.405 86.68ZM609.822 162.35C561.647 162.35 532.272 145.195 532.272 105.245V103.835H576.452V108.77C576.452 119.345 580.212 122.165 609.822 122.165C636.612 122.165 639.432 120.05 639.432 113C639.432 107.36 636.377 105.01 623.452 103.365L574.102 96.785C544.727 92.79 529.922 77.045 529.922 51.665C529.922 26.52 549.427 0.199998 606.297 0.199998C656.352 0.199998 680.322 22.055 680.322 57.305V58.715H636.142V55.19C636.142 43.91 631.207 40.15 601.597 40.15C579.037 40.15 574.102 43.205 574.102 50.02C574.102 54.955 576.922 57.305 585.382 58.48L634.732 65.765C673.272 71.405 683.612 91.145 683.612 111.355C683.612 138.38 662.932 162.35 609.822 162.35ZM823.259 160H779.079V42.265H723.384V2.55H878.719V42.265H823.259V160ZM929.574 160H879.989L947.904 2.55H1011.12L1079.27 160H1028.51L1016.52 130.86H941.794L929.574 160ZM967.644 69.055L958.479 91.145H1000.31L991.144 69.055L980.804 42.5H977.749L967.644 69.055ZM1219.12 160H1084V2.55H1128.18V120.285H1219.12V160ZM1275.05 160H1230.87V2.55H1275.05V61.065H1306.78L1345.08 2.55H1397.96L1343.44 79.865L1396.78 160H1343.91L1307.25 104.07H1275.05V160Z"
        fill="#26292D" />
</svg>
    