<svg width="150" height="79" viewBox="0 0 150 79" fill="none" xmlns="http://www.w3.org/2000/svg">
    <path fill-rule="evenodd" clip-rule="evenodd" d="M25.8601 48.1485C24.6831 48.1485 23.7615 48.9813 23.7615 50.1965C23.7615 51.4125 24.6878 52.2405 25.8601 52.2405C27.0316 52.2405 27.9587 51.4069 27.9587 50.1965C27.9587 48.9813 27.0363 48.1485 25.8601 48.1485ZM25.8601 51.6549C25.0208 51.6549 24.3983 51.0349 24.3983 50.1965C24.3983 49.3589 25.0161 48.7341 25.8601 48.7341C26.6938 48.7341 27.3211 49.3685 27.3211 50.1965C27.3211 51.0197 26.6883 51.6549 25.8601 51.6549ZM46.2802 40.9853H36.0642L37.2254 23.0269L30.5912 40.9853H21.1045L36.1568 0.394043H46.2509L45.0858 18.5989L51.8458 0.394043H61.3332L46.2802 40.9853ZM47.5126 40.9853L62.5641 0.394043H72.0507L56.9993 40.9853H47.5126Z" fill="#C9C9C9"/>
    <path fill-rule="evenodd" clip-rule="evenodd" d="M19.6962 27.3218C6.35522 43.1247 -6.22954 64.1517 4.88651 73.8346C15.6579 83.2179 29.1215 77.6623 38.3015 73.9582C47.4816 70.2542 148.949 25.809 148.949 25.809C149.928 25.3152 149.745 24.6977 148.52 25.0061C148.027 25.1305 38.0571 55.1916 38.0571 55.1916C24.1024 59.1429 8.19092 50.5312 19.6962 27.3218Z" fill="#C9C9C9"/>
    <path fill-rule="evenodd" clip-rule="evenodd" d="M26.2001 50.7205C26.4951 50.706 26.7259 50.5516 26.7259 50.1375C26.7259 49.6036 26.3817 49.4693 25.8068 49.4693H24.9805V51.683H25.5316V50.7406H25.6244L26.1264 51.683H26.76L26.2001 50.7205ZM25.8464 50.3619H25.5324V49.8481H25.7973C25.9598 49.8481 26.1462 49.8674 26.1462 50.082C26.1462 50.312 26.0384 50.3619 25.8464 50.3619ZM121.446 0.394043C120.266 0.394043 119.343 1.2319 119.343 2.45251C119.343 3.67393 120.272 4.50616 121.446 4.50616C122.621 4.50616 123.55 3.6683 123.55 2.45251C123.551 1.2319 122.627 0.394043 121.446 0.394043ZM121.446 3.91918C120.605 3.91918 119.981 3.29601 119.981 2.45332C119.981 1.61144 120.6 0.98344 121.446 0.98344C122.282 0.98344 122.912 1.62109 122.912 2.45332C122.912 3.28073 122.278 3.91918 121.446 3.91918Z" fill="#C9C9C9"/>
    <path fill-rule="evenodd" clip-rule="evenodd" d="M121.88 2.46742C122.176 2.45298 122.407 2.29898 122.407 1.88591C122.407 1.35333 122.062 1.21938 121.487 1.21938H120.66V3.4267H121.211V2.48747H121.305L121.806 3.4267H122.442L121.88 2.46742ZM121.525 2.10969H121.211V1.59716H121.477C121.639 1.59716 121.826 1.61721 121.826 1.83137C121.826 2.05996 121.718 2.10969 121.525 2.10969ZM115.248 7.17722L117.806 0.394043H88.7561L78.7813 12.6033L83.3864 0.394043H73.7435L58.7588 41.0907H68.2795L74.6771 24.0722L75.1153 41.0907L104.328 41.0266L107.109 33.1983H96.0023L99.6517 23.3327H108.806L111.622 15.7482H102.468L105.606 7.17722H115.248ZM84.5606 38.3773L83.9501 17.1663L98.345 1.19773L84.5606 38.3773Z" fill="#C9C9C9"/>
    </svg>
    