<svg width="135" height="91" viewBox="0 0 135 91" fill="none" xmlns="http://www.w3.org/2000/svg">
    <path d="M88.5139 59.8189L60.9287 11.7891L80.746 0.385254L115.048 59.8189H88.5139Z" fill="#C9C9C9"/>
    <path d="M15.0381 53.0896L34.8554 41.6086L45.3408 59.8189H18.8836L15.0381 53.0896Z" fill="#C9C9C9"/>
    <path d="M53.9297 90.4604H59.5698V67.6013H53.9297V90.4604Z" fill="#C9C9C9"/>
    <path d="M124.61 91C118.303 91 114.509 87.7381 114.304 83.1406H120.251C120.251 84.5789 121.149 86.685 124.994 86.7621C127.558 86.7621 128.763 85.2467 128.763 84.1166C128.609 82.3187 126.353 82.1646 123.943 81.7793C121.533 81.394 119.482 80.9574 117.995 80.1869C116.098 79.2108 114.816 77.1047 114.816 74.6904C114.816 70.6066 118.354 67.3704 124.251 67.3704C129.968 67.3704 133.583 70.3754 133.967 74.8445H128.225C128.173 73.6373 127.943 71.7367 124.558 71.7367C122.277 71.7367 120.764 72.199 120.636 73.7915C120.636 76.1287 125.379 75.9746 129.071 76.9506C132.608 77.8496 134.864 80.0584 134.864 83.1406C134.864 88.8168 130.275 91 124.61 91Z" fill="#C9C9C9"/>
    <path d="M38.2656 32.6962L58.0829 21.241L80.31 59.8189H59.5698V65.4695H53.9297V59.7932L38.2656 32.6962Z" fill="#C9C9C9"/>
    <path d="M38.7783 91C32.2153 91 26.8828 85.6319 26.8828 79.1338C26.8828 72.5585 32.2153 67.3703 38.7783 67.3703C41.2651 67.3703 43.5211 68.0381 45.4952 69.3994V59.8191H51.1353V90.4606H45.4952V88.9452C43.5211 90.2294 41.2651 91 38.7783 91ZM32.2922 79.1338C32.2922 82.6782 35.3173 85.6319 38.9321 85.6319C42.47 85.6319 45.4952 82.6782 45.4952 79.1338C45.4952 75.5893 42.47 72.5585 38.9321 72.5585C35.3173 72.5585 32.2922 75.5893 32.2922 79.1338Z" fill="#C9C9C9"/>
    <path d="M80.4639 59.8191H86.0271V90.4606H80.4639V88.9452C78.5668 90.2294 76.2338 91 73.6701 91C67.184 91 61.8516 85.6319 61.8516 79.1338C61.8516 72.5585 67.184 67.3703 73.6701 67.3703C76.2338 67.3703 78.4899 68.0381 80.4639 69.3994V59.8191ZM67.3378 79.1338C67.3378 82.6782 70.363 85.6319 73.824 85.6319C77.4388 85.6319 80.4639 82.6782 80.4639 79.1338C80.4639 75.5893 77.4388 72.5585 73.824 72.5585C70.363 72.5585 67.3378 75.5893 67.3378 79.1338Z" fill="#C9C9C9"/>
    <path d="M99.7424 91C93.2819 91 87.9238 85.6319 87.9238 79.1338C87.9238 72.5586 93.2819 67.3704 99.7424 67.3704C102.229 67.3704 104.562 68.0381 106.459 69.3994V67.5758H112.099V90.4606H106.459V88.9452C104.562 90.2295 102.306 91 99.7424 91ZM93.4101 79.1338C93.4101 82.6782 96.4352 85.6319 99.9731 85.6319C103.511 85.6319 106.459 82.6782 106.459 79.1338C106.459 75.5894 103.511 72.5586 99.9731 72.5586C96.4352 72.5586 93.4101 75.5894 93.4101 79.1338Z" fill="#C9C9C9"/>
    <path d="M6.14301 79.1338C6.14301 82.6782 9.16816 85.6319 12.706 85.6319C16.3208 85.6319 19.346 82.6782 19.346 79.1338C19.346 75.5894 16.3208 72.5586 12.706 72.5586C9.16816 72.5586 6.14301 75.5894 6.14301 79.1338ZM12.5522 91C6.0661 91 0.708008 85.6319 0.708008 79.1338C0.708008 72.5586 6.0661 67.3704 12.5522 67.3704C15.039 67.3704 17.3719 68.0381 19.346 69.3994V67.5758H24.9092V90.4606H19.346V88.9452C17.4489 90.2295 15.1159 91 12.5522 91Z" fill="#C9C9C9"/>
    </svg>
    