<svg width="20" height="20" viewBox="0 0 20 20" fill="none" xmlns="http://www.w3.org/2000/svg">
<g clip-path="url(#clip0_40_64)">
<path d="M1.66667 10H18.3333M1.66667 10C1.66667 14.6023 5.39763 18.3333 10 18.3333M1.66667 10C1.66667 5.39762 5.39763 1.66667 10 1.66667M18.3333 10C18.3333 14.6023 14.6023 18.3333 10 18.3333M18.3333 10C18.3333 5.39762 14.6023 1.66667 10 1.66667M10 18.3333C12.0844 16.0513 13.269 13.09 13.3333 10C13.269 6.91002 12.0844 3.94862 10 1.66667M10 18.3333C7.9156 16.0513 6.73105 13.09 6.66667 10C6.73105 6.91002 7.9156 3.94862 10 1.66667" stroke="black" stroke-width="2" stroke-linecap="round" stroke-linejoin="round"/>
</g>
<defs>
<clipPath id="clip0_40_64">
<rect width="20" height="20" fill="white"/>
</clipPath>
</defs>
</svg>
